<svg width="142" height="35" viewBox="0 0 142 35" fill="none" xmlns="http://www.w3.org/2000/svg">
<rect width="142" height="35" fill="white"/>
<path d="M2.354 26.88V3.87C2.354 3.272 2.172 2.843 1.808 2.583C1.444 2.323 0.846 2.193 0.014 2.193V0.749998H9.062V2.193C8.23 2.193 7.632 2.323 7.268 2.583C6.904 2.843 6.722 3.272 6.722 3.87V13.815H13.079V3.87C13.079 3.272 12.897 2.843 12.533 2.583C12.169 2.323 11.571 2.193 10.739 2.193V0.749998H19.709V2.193C18.877 2.193 18.279 2.323 17.915 2.583C17.551 2.843 17.369 3.272 17.369 3.87V26.88C17.369 27.478 17.551 27.907 17.915 28.167C18.279 28.427 18.877 28.557 19.709 28.557V30H10.739V28.557C11.571 28.557 12.169 28.427 12.533 28.167C12.897 27.907 13.079 27.478 13.079 26.88V15.492H6.722V26.88C6.722 27.504 6.891 27.946 7.229 28.206C7.567 28.44 8.178 28.557 9.062 28.557V30H0.014V28.557C0.898 28.557 1.509 28.44 1.847 28.206C2.185 27.946 2.354 27.504 2.354 26.88ZM20.5222 34.68H19.0792V33.12H20.0542C21.2762 33.12 22.2122 32.626 22.8622 31.638C23.5382 30.65 23.8762 29.246 23.8762 27.426V3.87C23.8762 3.272 23.6942 2.843 23.3302 2.583C22.9662 2.323 22.3682 2.193 21.5362 2.193V0.749998H30.5842V2.193C29.7522 2.193 29.1542 2.323 28.7902 2.583C28.4262 2.843 28.2442 3.272 28.2442 3.87V25.554C28.2442 28.544 27.5812 30.806 26.2552 32.34C24.9552 33.9 23.0442 34.68 20.5222 34.68ZM32.7679 28.557C33.5999 28.557 34.1979 28.427 34.5619 28.167C34.9259 27.907 35.1079 27.478 35.1079 26.88V3.87C35.1079 3.272 34.9259 2.843 34.5619 2.583C34.1979 2.323 33.5999 2.193 32.7679 2.193V0.749998H42.5179C47.4059 0.749998 49.8499 3.545 49.8499 9.135C49.8499 11.033 49.5639 12.567 48.9919 13.737C48.4459 14.907 47.4839 15.895 46.1059 16.701C47.3539 17.507 48.2509 18.508 48.7969 19.704C49.3429 20.874 49.6159 22.369 49.6159 24.189V24.696C49.6159 25.84 49.8759 26.776 50.3959 27.504C50.9159 28.206 51.6049 28.557 52.4629 28.557H52.8919V30H52.4629C49.9409 30 48.0819 29.389 46.8859 28.167C45.7159 26.919 45.1309 24.995 45.1309 22.395V21.303C45.1309 20.159 44.8579 19.223 44.3119 18.495C43.7919 17.767 43.1159 17.403 42.2839 17.403H41.3479V15.843H42.5179C43.4019 15.843 44.1039 15.492 44.6239 14.79C45.1699 14.088 45.4429 13.165 45.4429 12.021V6.054C45.4429 4.91 45.1829 4 44.6629 3.324C44.1429 2.648 43.4279 2.31 42.5179 2.31H39.4759V26.88C39.4759 27.478 39.6579 27.907 40.0219 28.167C40.3859 28.427 40.9839 28.557 41.8159 28.557V30H32.7679V28.557ZM60.4408 28.557C61.2728 28.557 61.8708 28.427 62.2348 28.167C62.5988 27.907 62.7808 27.478 62.7808 26.88V3.87C62.7808 3.272 62.5988 2.843 62.2348 2.583C61.8708 2.323 61.2728 2.193 60.4408 2.193V0.749998H67.3048L75.5338 19.236V3.87C75.5338 3.272 75.3518 2.843 74.9878 2.583C74.6238 2.323 74.0258 2.193 73.1938 2.193V0.749998H79.7068V2.193C78.8748 2.193 78.2768 2.323 77.9128 2.583C77.5488 2.843 77.3668 3.272 77.3668 3.87V30H75.4558L64.6138 5.43V26.88C64.6138 27.478 64.7958 27.907 65.1598 28.167C65.5238 28.427 66.1218 28.557 66.9538 28.557V30H60.4408V28.557ZM80.9829 28.557C81.8149 28.557 82.4129 28.427 82.7769 28.167C83.1409 27.907 83.3229 27.478 83.3229 26.88V12.06C83.3229 11.462 83.1409 11.033 82.7769 10.773C82.4129 10.513 81.8149 10.383 80.9829 10.383V8.94H92.5269C93.2029 8.94 93.6839 8.888 93.9699 8.784C94.2559 8.654 94.4119 8.459 94.4379 8.199H95.7249L97.3239 14.517L96.0369 14.868C95.5689 13.62 95.1139 12.684 94.6719 12.06C94.2559 11.41 93.7099 10.981 93.0339 10.773C92.3839 10.565 91.4869 10.461 90.3429 10.461H87.5739V18.846H90.3819C91.3959 18.846 91.9029 18.17 91.9029 16.818H93.1509V22.746H91.9029C91.9029 21.16 91.3959 20.367 90.3819 20.367H87.5739V28.479H91.6299C92.7999 28.479 93.6969 28.349 94.3209 28.089C94.9709 27.829 95.4389 27.335 95.7249 26.607C96.0369 25.853 96.2709 24.761 96.4269 23.331H97.7139V30.819H96.3879C96.2839 30.507 96.0369 30.286 95.6469 30.156C95.2569 30.052 94.6069 30 93.6969 30H80.9829V28.557ZM122.118 11.865C122.274 11.345 122.144 10.929 121.728 10.617C121.312 10.305 120.662 10.149 119.778 10.149V8.94H126.174V10.149C125.498 10.149 124.978 10.279 124.614 10.539C124.25 10.799 123.964 11.241 123.756 11.865L117.906 30.546H116.892L112.251 15.297L107.805 30.546H106.752L100.668 11.787C100.46 11.111 100.187 10.669 99.8491 10.461C99.5371 10.253 99.0041 10.149 98.2501 10.149V8.94H107.025V10.149C105.127 10.149 104.334 10.682 104.646 11.748L108.234 23.604L111.432 12.333C111.614 11.683 111.484 11.163 111.042 10.773C110.6 10.357 109.989 10.149 109.209 10.149V8.94H117.36L117.399 10.149C115.475 10.149 114.669 10.682 114.981 11.748L118.452 23.526L122.118 11.865ZM134.088 8.55C134.868 8.55 135.466 8.602 135.882 8.706C136.324 8.784 136.649 8.81 136.857 8.784C137.091 8.758 137.273 8.576 137.403 8.238H138.729L140.328 14.517L139.002 14.868C138.352 13.074 137.689 11.839 137.013 11.163C136.363 10.487 135.505 10.149 134.439 10.149C133.633 10.149 132.931 10.435 132.333 11.007C131.761 11.553 131.475 12.229 131.475 13.035C131.475 13.763 131.657 14.374 132.021 14.868C132.385 15.336 133.035 15.83 133.971 16.35L138.183 18.651C139.301 19.249 140.159 20.068 140.757 21.108C141.381 22.122 141.693 23.279 141.693 24.579C141.693 25.645 141.381 26.62 140.757 27.504C140.159 28.388 139.34 29.09 138.3 29.61C137.286 30.13 136.142 30.39 134.868 30.39C133.906 30.39 133.126 30.299 132.528 30.117C131.93 29.935 131.449 29.753 131.085 29.571C130.747 29.389 130.448 29.298 130.188 29.298C129.59 29.298 129.2 29.532 129.018 30H127.653V22.278H128.979C129.343 24.332 129.98 25.918 130.89 27.036C131.826 28.154 132.957 28.713 134.283 28.713C134.881 28.713 135.44 28.544 135.96 28.206C136.506 27.868 136.948 27.439 137.286 26.919C137.624 26.399 137.793 25.853 137.793 25.281C137.793 23.903 136.883 22.707 135.063 21.693L131.631 19.782C129.057 18.378 127.77 16.558 127.77 14.322C127.77 13.308 128.069 12.359 128.667 11.475C129.265 10.591 130.045 9.889 131.007 9.369C131.969 8.823 132.996 8.55 134.088 8.55Z" fill="black"/>
</svg>
